<?xml version="1.0" encoding="iso-8859-1"?>
<!-- Generator: Adobe Illustrator 19.1.0, SVG Export Plug-In . SVG Version: 6.00 Build 0)  -->
<svg version="1.1" xmlns="http://www.w3.org/2000/svg" xmlns:xlink="http://www.w3.org/1999/xlink" x="0px" y="0px"
	 viewBox="0 0 1233 334.129" style="enable-background:new 0 0 1233 334.129;" xml:space="preserve">
<g id="OK">
	<g>
		<defs>
			<rect id="SVGID_1_" x="-0.981" y="0" width="1235.981" height="334.129"/>
		</defs>
		<clipPath id="SVGID_2_">
			<use xlink:href="#SVGID_1_"  style="overflow:visible;"/>
		</clipPath>
		<linearGradient id="SVGID_3_" gradientUnits="userSpaceOnUse" x1="-0.9807" y1="167.0643" x2="1235.0001" y2="167.0643">
			<stop  offset="0" style="stop-color:#3AA096"/>
			<stop  offset="1" style="stop-color:#3AA096;stop-opacity:0.3"/>
		</linearGradient>
		<rect x="-0.981" y="0" style="clip-path:url(#SVGID_2_);fill:url(#SVGID_3_);" width="1235.981" height="334.129"/>
		<polygon style="opacity:0.8;clip-path:url(#SVGID_2_);fill:#3AA096;" points="537.41,77.414 383.923,334.289 230.437,77.414 		"/>
		<polygon style="opacity:0.55;clip-path:url(#SVGID_2_);fill:#3AA096;" points="153.693,205.852 307.18,-51.023 460.666,205.852 		
			"/>
		<polygon style="opacity:0.58;clip-path:url(#SVGID_2_);fill:#3AA096;" points="307.177,205.852 153.691,462.727 0.205,205.852 		
			"/>
		<polygon style="clip-path:url(#SVGID_2_);fill:#3AA096;" points="307.18,334.289 230.436,205.852 153.693,334.289 		"/>
		<polygon style="opacity:0.15;clip-path:url(#SVGID_2_);fill:#FFFFFF;" points="77.94,334.288 154.683,205.85 231.427,334.287 		
			"/>
		<linearGradient id="SVGID_4_" gradientUnits="userSpaceOnUse" x1="383.9611" y1="44.8311" x2="460.7042" y2="44.8311">
			<stop  offset="0" style="stop-color:#FFFFFF;stop-opacity:0.15"/>
			<stop  offset="0.4518" style="stop-color:#FFFFFF;stop-opacity:0.5"/>
			<stop  offset="1" style="stop-color:#FFFFFF"/>
		</linearGradient>
		<polygon style="opacity:0.25;clip-path:url(#SVGID_2_);fill:url(#SVGID_4_);" points="383.961,76.941 422.333,12.722 
			460.704,76.94 		"/>
		<polygon style="opacity:0.25;clip-path:url(#SVGID_2_);fill:#3AA096;" points="537.135,76.941 575.507,12.722 613.878,76.94 		"/>
		<polygon style="opacity:0.15;clip-path:url(#SVGID_2_);fill:#FFFFFF;" points="653.518,270.069 691.889,205.85 730.261,270.069 		
			"/>
		<polygon style="opacity:0.35;clip-path:url(#SVGID_2_);fill:#8FC1BC;" points="230.436,205.852 307.18,77.414 383.924,205.852 		
			"/>
		<polygon style="clip-path:url(#SVGID_2_);fill:#3AA096;" points="537.207,205.851 460.463,334.288 383.72,205.851 		"/>
		<path style="opacity:0.15;clip-path:url(#SVGID_2_);fill:#FFFFFF;" d="M475.741,205.851l-15.348,25.688l-15.349-25.688
			L475.741,205.851z M414.347,205.851l15.348,25.688l15.349-25.688L414.347,205.851z M383.792,205.851l15.349,25.688l15.348-25.688
			L383.792,205.851z M475.741,205.851l15.349,25.688l15.349-25.688L475.741,205.851z M506.438,205.851l15.348,25.688l15.349-25.688
			L506.438,205.851z M460.392,231.538l15.348,25.688l15.349-25.688L460.392,231.538z M429.695,231.538l15.349,25.688l15.349-25.688
			L429.695,231.538z M399.14,231.538l15.349,25.688l15.348-25.688L399.14,231.538z M491.089,231.538l15.349,25.688l15.348-25.688
			L491.089,231.538z M460.392,282.913l15.348,25.688l15.349-25.688L460.392,282.913z M429.695,282.913l15.349,25.688l15.349-25.688
			H429.695z M445.044,257.226l15.349,25.688l15.348-25.688H445.044z M414.347,257.226l15.348,25.688l15.349-25.688H414.347z
			 M475.741,257.226l15.349,25.688l15.349-25.688L475.741,257.226z M445.044,308.601l15.349,25.688l15.348-25.688L445.044,308.601z"
			/>
		<polygon style="opacity:0.35;clip-path:url(#SVGID_2_);fill:#8FC1BC;" points="153.693,77.414 76.949,205.852 0.206,77.414 		"/>
		<polygon style="opacity:0.53;clip-path:url(#SVGID_2_);fill:#8FC1BC;" points="76.949,205.852 153.693,77.414 230.435,205.852 		
			"/>
		<path style="opacity:0.5;clip-path:url(#SVGID_2_);fill:#3AA096;" d="M0.463-50.967C0.388-50.572,0.205,77.416,0.205,77.416
			l76.744-128.44C76.949-51.023,0.476-51.035,0.463-50.967z"/>
		<g style="opacity:0.74;clip-path:url(#SVGID_2_);">
			<polygon style="fill:#8FC1BC;" points="245.927,-51.157 230.578,-25.469 215.23,-51.157 			"/>
			<polygon style="fill:#8FC1BC;" points="276.624,-51.157 261.275,-25.469 245.927,-51.157 			"/>
			<polygon style="fill:#8FC1BC;" points="307.178,-51.157 291.83,-25.469 276.481,-51.157 			"/>
			<polygon style="fill:#8FC1BC;" points="215.23,-51.157 199.881,-25.469 184.532,-51.157 			"/>
			<polygon style="fill:#8FC1BC;" points="184.532,-51.157 169.184,-25.469 153.835,-51.157 			"/>
			<polygon style="fill:#8FC1BC;" points="230.578,-25.469 215.23,0.218 199.881,-25.469 			"/>
			<polygon style="fill:#8FC1BC;" points="261.275,-25.469 245.927,0.218 230.578,-25.469 			"/>
			<polygon style="fill:#8FC1BC;" points="291.83,-25.469 276.481,0.218 261.133,-25.469 			"/>
			<polygon style="fill:#8FC1BC;" points="199.881,-25.469 184.532,0.218 169.184,-25.469 			"/>
			<polygon style="fill:#8FC1BC;" points="230.578,25.906 215.23,51.594 199.881,25.906 			"/>
			<polygon style="fill:#8FC1BC;" points="261.275,25.906 245.927,51.594 230.578,25.906 			"/>
			<polygon style="fill:#8FC1BC;" points="245.927,0.218 230.578,25.906 215.23,0.218 			"/>
			<polygon style="fill:#8FC1BC;" points="276.624,0.218 261.275,25.906 245.927,0.218 			"/>
			<polygon style="fill:#8FC1BC;" points="215.23,0.218 199.881,25.906 184.532,0.218 			"/>
			<polygon style="fill:#8FC1BC;" points="245.927,51.593 230.578,77.281 215.23,51.593 			"/>
		</g>
		<polygon style="opacity:0.35;clip-path:url(#SVGID_2_);fill:#3AA096;" points="0.205,205.852 153.692,-51.023 307.178,205.852 		
			"/>
		<polygon style="clip-path:url(#SVGID_2_);fill:#42A096;" points="230.436,205.852 153.693,334.289 76.949,205.852 		"/>
		<polygon style="opacity:0.25;clip-path:url(#SVGID_2_);fill:#8FC1BC;" points="307.18,77.414 230.436,205.852 153.693,77.414 		
			"/>
		<g style="opacity:0.25;clip-path:url(#SVGID_2_);">
			<polygon style="fill:#8FC1BC;" points="169.255,205.356 153.906,179.668 138.558,205.356 			"/>
			<polygon style="fill:#8FC1BC;" points="199.952,205.356 184.604,179.668 169.255,205.356 			"/>
			<polygon style="fill:#8FC1BC;" points="230.507,205.356 215.158,179.668 199.81,205.356 			"/>
			<polygon style="fill:#8FC1BC;" points="138.558,205.356 123.209,179.668 107.86,205.356 			"/>
			<polygon style="fill:#8FC1BC;" points="107.86,205.356 92.512,179.668 77.163,205.356 			"/>
			<polygon style="fill:#8FC1BC;" points="153.906,179.668 138.558,153.981 123.209,179.668 			"/>
			<polygon style="fill:#8FC1BC;" points="184.604,179.668 169.255,153.981 153.906,179.668 			"/>
			<polygon style="fill:#8FC1BC;" points="215.158,179.668 199.809,153.981 184.461,179.668 			"/>
			<polygon style="fill:#8FC1BC;" points="123.209,179.668 107.86,153.981 92.512,179.668 			"/>
			<polygon style="fill:#8FC1BC;" points="153.906,128.293 138.558,102.605 123.209,128.293 			"/>
			<polygon style="fill:#8FC1BC;" points="184.604,128.293 169.255,102.605 153.906,128.293 			"/>
			<polygon style="fill:#8FC1BC;" points="169.255,153.981 153.906,128.293 138.558,153.981 			"/>
			<polygon style="fill:#8FC1BC;" points="199.952,153.981 184.604,128.293 169.255,153.981 			"/>
			<polygon style="fill:#8FC1BC;" points="138.558,153.981 123.209,128.293 107.86,153.981 			"/>
			<polygon style="fill:#8FC1BC;" points="169.255,102.606 153.906,76.918 138.558,102.606 			"/>
		</g>
		<polygon style="opacity:0.1;clip-path:url(#SVGID_2_);fill:#3AA096;" points="691.889,205.852 615.145,334.289 538.402,205.852 		
			"/>
		<polygon style="opacity:0.2;clip-path:url(#SVGID_2_);fill:#3AA096;" points="615.145,334.287 538.403,462.725 461.659,334.287 		
			"/>
		<linearGradient id="SVGID_5_" gradientUnits="userSpaceOnUse" x1="460.6674" y1="270.0686" x2="614.1536" y2="270.0686">
			<stop  offset="0" style="stop-color:#FFFFFF;stop-opacity:0.15"/>
			<stop  offset="0.4518" style="stop-color:#FFFFFF;stop-opacity:0.5"/>
			<stop  offset="1" style="stop-color:#FFFFFF"/>
		</linearGradient>
		<polygon style="opacity:0.25;clip-path:url(#SVGID_2_);fill:url(#SVGID_5_);" points="460.667,334.287 537.411,205.85 
			614.154,334.287 		"/>
		
			<linearGradient id="SVGID_6_" gradientUnits="userSpaceOnUse" x1="2332.5115" y1="3552.7959" x2="2335.2151" y2="4174.7036" gradientTransform="matrix(7.152748e-07 1 -1 4.487687e-07 4195.5205 -2063.4031)">
			<stop  offset="0" style="stop-color:#FFFFFF;stop-opacity:0.15"/>
			<stop  offset="0.4518" style="stop-color:#FFFFFF;stop-opacity:0.5"/>
			<stop  offset="1" style="stop-color:#FFFFFF"/>
		</linearGradient>
		<polygon style="opacity:0.55;clip-path:url(#SVGID_2_);fill:url(#SVGID_6_);" points="307.18,334.287 383.924,205.85 
			460.666,334.287 		"/>
		<polygon style="opacity:0.35;clip-path:url(#SVGID_2_);fill:#3AA096;" points="383.924,205.852 460.666,77.414 537.41,205.852 		
			"/>
	</g>
</g>
<g id="Ebene_3">
</g>
<g id="Ebene_6">
</g>
<g id="Ebene_7">
</g>
<g id="Ebene_4">
</g>
<g id="Layer_1">
</g>
<g id="Ebene_5">
</g>
</svg>
